<svg width="441" height="138" viewBox="0 0 441 138" fill="none" xmlns="http://www.w3.org/2000/svg">
<path d="M100.39 84.1168L133.874 78.2128L142.5 128L109.724 137.053L100.39 84.1168Z" fill="#666666"/>
<rect x="257.64" y="8.73322" width="5" height="32.7211" transform="rotate(-30 257.64 8.73322)" fill="#555555"/>
<rect x="141.181" y="10.9696" width="5" height="27.9521" transform="rotate(-25 141.181 10.9696)" fill="#555555"/>
<rect x="140" width="94" height="15" fill="#555555"/>
<rect x="214" y="2" width="53" height="11" fill="#555555"/>
<path d="M0 90.3676V35.5C0 32.7386 2.23858 30.5 5 30.5H155.5C157.709 30.5 159.5 32.2909 159.5 34.5C159.5 36.7091 161.291 38.5 163.5 38.5H250.63C251.527 38.5 252.407 38.2587 253.179 37.8015L264.321 31.1985C265.093 30.7413 265.973 30.5 266.87 30.5H321.731C322.241 30.5 322.747 30.578 323.234 30.7313L365.003 43.8977C367.085 44.5538 368.5 46.4841 368.5 48.6664V52.5H426.5L428.106 51.8576C428.697 51.6214 429.327 51.5 429.963 51.5H435.75C438.373 51.5 440.5 53.6266 440.5 56.25C440.5 58.8734 438.373 61 435.75 61H429.963C429.327 61 428.697 60.8786 428.106 60.6424L426.5 60H368.5V61H369C371.761 61 374 63.2386 374 66V68C374 70.7614 371.761 73 369 73H368.5V74C368.5 76.7614 366.261 79 363.5 79H267.042C266.037 79 265.056 78.6972 264.226 78.1311L255.774 72.3689C254.944 71.8028 253.963 71.5 252.958 71.5H146.994C145.15 71.5 143.457 72.5141 142.586 74.1389L137.357 83.9009C136.803 84.934 135.904 85.7399 134.817 86.1778L107.368 97.2337C104.082 98.5572 100.5 96.1382 100.5 92.5958V76.5C100.5 73.7386 98.2614 71.5 95.5 71.5H42.0829C41.0528 71.5 40.0479 71.8182 39.2055 72.411L7.87747 94.4566C4.56472 96.7878 0 94.4183 0 90.3676Z" fill="#333333"/>
<path d="M208.278 117.437L240.154 68.1283C241.166 66.5636 240.043 64.5 238.18 64.5C237.378 64.5 236.632 64.9078 236.2 65.5822L205.473 113.496C204.442 115.104 202.663 116.076 200.754 116.076H190.911C186.516 116.076 183.83 111.248 186.148 107.513L200.357 84.6207C200.766 83.9615 201.487 83.5606 202.263 83.5606H202.481C204.214 83.5606 205.222 81.602 204.215 80.1919C203.957 79.8306 203.818 79.3977 203.818 78.9536V70.1061C203.818 67.0099 201.308 64.5 198.212 64.5H193.644C189.04 64.5 186.399 69.7431 189.14 73.4429L191.471 76.59C192.834 78.4303 192.941 80.9146 191.74 82.865L172.964 113.376C171.974 114.985 172.137 117.048 173.366 118.482C174.191 119.446 175.397 120 176.666 120H203.57C205.472 120 207.245 119.035 208.278 117.437Z" fill="#333333"/>
</svg>
