<svg width="441" height="138" viewBox="0 0 441 138" fill="none" xmlns="http://www.w3.org/2000/svg">
<path d="M100.387 84.1144L133.869 78.2105L142.496 127.997L109.721 137.05L100.387 84.1144Z" fill="#CCCCCC"/>
<rect x="257.634" y="8.73349" width="4.99989" height="32.7204" transform="rotate(-30 257.634 8.73349)" fill="#CCCCCC"/>
<rect x="141.176" y="10.9687" width="4.99989" height="27.9515" transform="rotate(-25 141.176 10.9687)" fill="#CCCCCC"/>
<rect x="139.997" width="93.998" height="14.9997" fill="#CCCCCC"/>
<rect x="213.993" y="1.99834" width="52.9989" height="10.9998" fill="#CCCCCC"/>
<path d="M207.191 119.111L240.561 67.4921C241.395 66.2014 240.469 64.4993 238.932 64.4993H237.95C237.289 64.4993 236.674 64.8357 236.317 65.3919L204.387 115.181C204.03 115.738 203.415 116.074 202.754 116.074H184.317C182.796 116.074 181.867 114.403 182.669 113.111L200.442 84.4763C200.796 83.9062 201.419 83.5595 202.09 83.5595H202.848C204.426 83.5595 205.344 81.7762 204.427 80.4923L204.176 80.1412C203.941 79.8122 203.814 79.418 203.814 79.0137V66.439C203.814 65.3677 202.946 64.4993 201.875 64.4993H186.363C184.769 64.4993 183.856 66.3134 184.804 67.5936L192.943 78.5813C193.415 79.218 193.452 80.0776 193.036 80.7525L172.041 114.869C171.6 115.587 171.672 116.508 172.221 117.148L174.083 119.321C174.451 119.751 174.989 119.998 175.556 119.998H205.562C206.22 119.998 206.833 119.664 207.191 119.111Z" fill="#CCCCCC"/>
<path d="M0 96.6648L0 32.2292C0 31.2737 0.774558 30.4991 1.73002 30.4991L157.767 30.4991C158.722 30.4991 159.497 31.2737 159.497 32.2292V36.769C159.497 37.7244 160.271 38.499 161.227 38.499L251.52 38.499C251.831 38.499 252.135 38.4155 252.402 38.2573L265.086 30.7408C265.353 30.5826 265.658 30.4991 265.968 30.4991L322.227 30.4991C322.403 30.4991 322.579 30.5261 322.747 30.5792L367.282 44.6174C368.002 44.8445 368.492 45.5123 368.492 46.2674V52.4987L426.491 52.4987L428.681 51.6224C428.886 51.5407 429.104 51.4987 429.324 51.4987H438.761C439.716 51.4987 440.491 52.2733 440.491 53.2287V59.2685C440.491 60.2239 439.716 60.9985 438.761 60.9985H429.324C429.104 60.9985 428.886 60.9565 428.681 60.8748L426.491 59.9985L368.492 59.9985V60.9985H372.262C373.217 60.9985 373.992 61.773 373.992 62.7285V71.2682C373.992 72.2237 373.217 72.9982 372.262 72.9982H368.492V77.2681C368.492 78.2235 367.718 78.9981 366.762 78.9981L266.028 78.9981C265.68 78.9981 265.341 78.8933 265.053 78.6975L254.935 71.7989C254.648 71.603 254.309 71.4983 253.961 71.4983L145.033 71.4983C144.395 71.4983 143.809 71.8492 143.508 72.4113L136.793 84.9447C136.602 85.3021 136.291 85.581 135.915 85.7325L102.874 99.0405C101.737 99.4984 100.498 98.6615 100.498 97.4358V73.2283C100.498 72.2728 99.7233 71.4983 98.7678 71.4983H41.0468C40.6904 71.4983 40.3427 71.6083 40.0512 71.8135L2.72564 98.0796C1.57942 98.8862 0 98.0664 0 96.6648Z" fill="white"/>
</svg>
